<?xml version="1.0" encoding="UTF-8" standalone="no"?>
<!DOCTYPE svg PUBLIC "-//W3C//DTD SVG 1.1//EN" "http://www.w3.org/Graphics/SVG/1.1/DTD/svg11.dtd">
<svg xmlns="http://www.w3.org/2000/svg" version="1.1" viewBox="0 0 350 350" width="350.0pt" height="350.0pt">
<path d="M 0.00 0.00 L 350.00 0.00 L 350.00 350.00 L 0.00 350.00 L 0.00 0.00 Z" fill="#fdfdfd" />
<path d="M 136.15 55.87 C 139.14 57.61 141.49 60.63 143.97 63.02 C 153.68 72.68 163.33 82.40 173.03 92.07 C 173.00 93.30 172.98 94.52 172.95 95.75 C 161.06 107.72 149.21 119.49 137.39 131.44 C 136.43 132.58 135.03 131.57 134.25 130.75 C 125.25 121.43 115.92 112.43 106.81 103.20 C 104.22 100.49 101.15 98.02 98.98 94.95 C 98.72 93.05 100.38 91.78 101.44 90.44 C 110.94 79.98 121.23 70.20 131.24 60.24 C 132.79 58.71 134.37 57.11 136.15 55.87 Z" fill="#ebb235" />
<path d="M 256.94 99.02 C 267.67 109.65 278.30 120.37 289.01 131.01 C 290.74 132.82 293.08 134.60 294.12 136.91 C 291.78 139.90 288.76 142.39 286.12 145.12 C 277.33 154.01 268.42 162.76 259.66 171.66 C 258.10 172.86 257.08 174.95 255.15 172.92 C 242.93 161.05 231.19 148.65 218.83 136.93 C 231.57 124.33 244.04 111.45 256.94 99.02 Z" fill="#13d785" />
<path d="M 53.89 138.02 C 56.74 140.09 59.09 142.93 61.63 145.37 C 70.67 154.29 79.79 163.27 88.78 172.24 C 89.52 173.22 91.27 174.66 90.83 175.99 C 89.74 177.74 88.07 179.17 86.62 180.62 C 75.68 191.37 64.91 202.55 53.84 213.14 C 50.69 211.80 48.38 208.40 45.88 206.11 C 35.64 196.09 25.67 185.79 15.40 175.80 C 26.34 163.98 38.08 152.86 49.40 141.39 C 50.69 140.21 52.13 138.42 53.89 138.02 Z" fill="#eb316c" />
<path d="M 175.56 181.00 C 178.51 183.07 180.93 185.98 183.51 188.48 C 190.88 195.78 198.22 203.11 205.57 210.43 C 208.38 213.39 211.48 215.22 212.31 219.53 C 200.28 231.08 188.70 243.12 176.76 254.76 C 176.23 255.24 175.66 255.68 175.06 256.09 C 172.00 253.90 169.47 250.86 166.76 248.25 C 157.85 239.47 149.04 230.62 140.19 221.79 C 139.06 220.32 137.28 219.36 138.31 217.28 C 140.31 214.41 143.19 212.12 145.58 209.58 C 154.14 200.80 162.90 192.23 171.57 183.57 C 172.75 182.52 173.89 181.15 175.56 181.00 Z" fill="#ebb235" />
</svg>